# xmcd
#
# Track frame offsets:
# 150
# 16732
# 29420
# 42230
# 64762
# 79152
# 95260
# 109587
# 126197
# 144715
# 157577
# 168830
# 199317
#
# Disc length: 4288 seconds
#
#
# Revision: 0
# Processed by: cddbd v1.5.1PL0 Copyright (c) Steve Scherf et al.
# Submitted via: FreeRIP 2.931 
#
DISCID=9f10be0d
DTITLE=Limbeck - Hey, Everything is Fine
DYEAR=2003
DGENRE=Indie
TTITLE0=Honk and Wave
TTITLE1=Silver Things
TTITLE2=Julia
TTITLE3=This Place Is Deserted
TTITLE4=Wrote This Down
TTITLE5=The Sun Woke The Whole State
TTITLE6=Tan and Blue
TTITLE7=Gamblin' Man
TTITLE8=In Ohio On Some Steps
TTITLE9=Brand New Orange
TTITLE10=Albatross and Ivy
TTITLE11=Comin' From Tucson
TTITLE12=Data
EXTD=
EXTT0=
EXTT1=
EXTT2=
EXTT3=
EXTT4=
EXTT5=
EXTT6=
EXTT7=
EXTT8=
EXTT9=
EXTT10=
EXTT11=
EXTT12=
PLAYORDER=
